<svg xmlns="http://www.w3.org/2000/svg" viewBox="0 0 512 512">
  <defs>
    <clipPath id="round">
      <rect x="0" y="0" width="512" height="512" rx="76" ry="76" />
    </clipPath>
    <linearGradient id="blueGrad" x1="0" x2="1" y1="0" y2="1">
      <stop offset="0%" stop-color="#062f9a"/>
      <stop offset="100%" stop-color="#00247d"/>
    </linearGradient>
    <linearGradient id="redGrad" x1="0" x2="1" y1="0" y2="1">
      <stop offset="0%" stop-color="#e01e34"/>
      <stop offset="100%" stop-color="#cf142b"/>
    </linearGradient>
    <filter id="grain" x="-10%" y="-10%" width="120%" height="120%">
      <feTurbulence type="fractalNoise" baseFrequency="1.1" numOctaves="1" result="n"/>
      <feColorMatrix type="saturate" values="0"/>
      <feBlend in="SourceGraphic" in2="n" mode="multiply"/>
    </filter>
  </defs>
  <g clip-path="url(#round)">
    <!-- Deep blue background -->
    <rect width="512" height="512" fill="url(#blueGrad)"/>
    <!-- Simplified bass clef with white outline and red accent -->
    <g transform="translate(120,80)">
      <!-- Main comma shape of bass clef -->
      <path d="M140 60c-48 0-88 34-88 84 0 54 42 90 98 90 28 0 50-8 70-22l-14-18c-16 12-34 18-54 18-40 0-70-24-70-66 0-38 28-62 62-62 22 0 40 8 52 22 8 10 12 20 14 34h-54v22h80c2-6 2-12 2-18 0-28-10-52-28-70-18-18-42-26-70-26z"
            fill="#0b0b0b" stroke="#ffffff" stroke-width="12"/>
      <!-- Red accent dots of bass clef -->
      <circle cx="286" cy="122" r="12" fill="url(#redGrad)" stroke="#ffffff" stroke-width="4"/>
      <circle cx="286" cy="158" r="12" fill="url(#redGrad)" stroke="#ffffff" stroke-width="4"/>
    </g>
    <!-- Strings -->
    <g stroke="#ffffff" stroke-opacity="0.9">
      <line x1="252" y1="202" x2="440" y2="184" stroke-width="2"/>
      <line x1="252" y1="208" x2="440" y2="190" stroke-width="1.8"/>
      <line x1="252" y1="214" x2="440" y2="196" stroke-width="1.8"/>
      <line x1="252" y1="220" x2="440" y2="202" stroke-width="1.6"/>
      <line x1="252" y1="226" x2="440" y2="208" stroke-width="1.6"/>
    </g>
    <!-- Subtle vignette/grain -->
    <rect width="512" height="512" fill="none" stroke="#000" stroke-opacity="0.22" stroke-width="22" filter="url(#grain)"/>
  </g>
</svg>
